<svg xmlns="http://www.w3.org/2000/svg" version="1.1" xmlns:xlink="http://www.w3.org/1999/xlink" xmlns:svgjs="http://svgjs.dev/svgjs" viewBox="0 0 800 800" opacity="0.59"><defs><linearGradient x1="50%" y1="0%" x2="50%" y2="100%" id="uundulate-grad"><stop stop-color="hsl(206, 75%, 49%)" stop-opacity="1" offset="45%"></stop><stop stop-color="hsl(331, 90%, 56%)" stop-opacity="1" offset="100%"></stop></linearGradient></defs><g stroke-width="2" stroke="url(#uundulate-grad)" fill="none"><path d="M729.5365366315491 234.20191243347642C769.0332322397023 364.2953068232458 742.2372505271062 621.7110200818537 676.9701638326462 701.8671375450073C611.7030771381862 782.023255008161 526.4756315463824 625.1263541581916 416.2545204981409 618.9512762566148C306.0334094498994 612.776198355038 221.2734644590871 718.6347224237529 147.90883080108642 672.2267636174387C74.54419714308574 625.8188048111244 28.923890027903497 475.5555862219537 64.10427893973849 396.1930739863067C99.28466785157349 316.83056175065974 228.59100050002553 357.69800270137307 316.7746975778946 291.28670488633315C404.95839465576387 224.87540707129335 401.39397511066613 89.31150956846017 487.38602491351094 77.41884447411496C573.3780747163559 65.52617937976976 690.039841023396 104.10851804370708 729.5365366315491 234.20191243347642C769.0332322397023 364.2953068232458 742.2372505271062 621.7110200818537 676.9701638326462 701.8671375450073 "></path><path d="M715.8058450621031 241.11014955172675C753.6568450199165 365.7829858419225 727.9773625453452 612.4730443814216 665.4297377964878 689.2893236169439C602.8821130476302 766.1056028524663 521.2058110221517 615.7460728712456 415.5772462675868 609.8282898822345C309.94868151302205 603.9105068932232 228.72040089682696 705.3582591257417 158.4126269745763 660.8839652696906C88.10485305232567 616.4096714136396 44.38539206694264 472.4074202656841 78.09993144078453 396.3516793731892C111.81447081462642 320.2959384806941 235.7330396027263 359.46056939179437 320.24241596901754 295.8164089857145C404.7517923353088 232.17224857963464 401.33589027125686 102.25684680608617 483.74493799898323 90.85970942400536C566.1539857267096 79.46257204192449 677.9548451042896 116.43731326153113 715.8058450621031 241.11014955172675C753.6568450199165 365.7829858419225 727.9773625453452 612.4730443814216 665.4297377964878 689.2893236169439 "></path><path d="M702.0751534926569 248.01841718755526C738.2804578001308 367.27069537817715 713.7174745635842 603.2350991985677 653.8893117603292 676.7115402064586C594.0611489570744 750.1879812143495 515.9359904979209 606.3658221018775 414.89997203703274 600.7053340254322C313.8639535761447 595.0448459489867 236.1673373345668 692.0818263453086 168.9164231480662 649.5411974395206C101.66550896156554 607.0005685337326 59.846894105981846 469.2592848269928 92.09558394183057 396.5103152776496C124.34427377767935 323.76134572830665 242.8750787054271 361.2231665997938 323.7101343601404 300.3461436026739C404.5451900148538 239.46912060555405 401.2778054318476 115.2022145612903 480.1038510844554 104.30060489147388C558.9298967370632 93.3989952216574 665.8698491851833 128.7661389969333 702.0751534926569 248.01841718755526C738.2804578001308 367.27069537817715 713.7174745635842 603.2350991985677 653.8893117603292 676.7115402064586 "></path><path d="M688.3444619232109 254.92668482338365C722.9040705803449 368.75840491443194 699.4575865818233 593.9971540157137 642.3488857241708 664.1337567959732C585.2401848665183 734.2703595762327 510.6661699736901 596.9855713325095 414.2226978064788 591.5823781686298C317.77922563926745 586.17918500475 243.61427377230666 678.8053935648755 179.4202193215561 638.1984296093506C115.22616487080546 597.5914656538257 75.30839614502099 466.1111493883013 106.09123644287666 396.66895118211016C136.87407674073228 327.226752975919 250.0171178081278 362.9857638077932 327.17785275126323 304.87587821963325C404.3385876943987 246.76599263147347 401.2197205924383 128.14758231649444 476.4627641699276 117.7415003589424C551.7058077474169 107.33541840139031 653.784853266077 141.09496473233548 688.3444619232109 254.92668482338365C722.9040705803449 368.75840491443194 699.4575865818233 593.9971540157137 642.3488857241708 664.1337567959732 "></path><path d="M674.613770353765 261.83489142405585C707.5276833605592 370.24605341553035 685.1976986000623 584.7591477977035 630.8084596880125 651.5559123503316C576.4192207759625 718.3526769029597 505.3963494494593 587.6052595279853 413.5454235759247 582.4593612766712C321.6944977023901 577.3134630253572 251.0612102100465 665.5288997492862 189.92401549504598 626.8556007440244C128.7868207800454 588.1823017387626 90.7698981840602 462.9629529144536 120.0868889439227 396.82752605141445C149.4038797037852 330.6920991883753 257.15915691082853 364.7482999806364 330.6455711423862 309.40555180143656C404.13198537394373 254.06280362223663 401.16163575302903 141.09288903654232 472.8216772553998 131.18233479125468C544.4817187577705 121.27178054596698 641.6998573469706 153.4237294325814 674.613770353765 261.83489142405585C707.5276833605592 370.24605341553035 685.1976986000623 584.7591477977035 630.8084596880125 651.5559123503316 "></path><path d="M660.8830482667407 268.74315905988436C692.1512656231953 371.73376295178514 670.9377801007233 575.5212026148497 619.2680031342759 638.9781289398463C567.5982261678284 702.4350552648431 500.1264984076504 578.2250087586174 412.8681188277926 573.3364054198689C325.6097392479346 568.4478020811207 258.50811613020824 652.2524669688532 200.42778115095774 615.5128329138545C142.3474461717072 578.7731988588557 106.23136970552127 459.8148174757623 134.08251092739062 396.986161955875C161.93365214926 334.1575064359878 264.3011654959512 366.5108971886358 334.1132590159309 313.93528641839595C403.92535253591063 261.3596756481561 401.10352039604163 154.03825679174645 469.18055982329383 144.6232302587232C537.257599250546 135.2082037256999 629.6148309102862 165.7525551679836 660.8830482667407 268.74315905988436C692.1512656231953 371.73376295178514 670.9377801007233 575.5212026148497 619.2680031342759 638.9781289398463 "></path><path d="M647.1524177324509 275.6514419545019C676.7749394385658 373.22148774682887 656.6779531541187 566.2832726907848 607.7276381332737 626.40036078815C558.7773231124287 686.5174488855154 494.85673891857596 568.8447732480383 412.1909056323948 564.2134648218557C329.5250723462136 559.5821563956731 265.95511360310434 638.9760494472092 210.93163835960388 604.1700803424735C155.90816311610337 569.3641112377379 121.69293277971667 456.6666972958599 148.07822446359296 397.1448131191246C174.4635161474692 337.6229289423893 271.4432656338082 368.2735096554243 337.58103844221 318.4650362941444C403.7188112506119 268.6565629328645 401.0454965917886 166.98363980573964 465.5395339439224 158.06414098498072C530.0335712960559 149.1446421642218 617.529896026336 178.08139616217483 647.1524177324509 275.6514419545019C676.7749394385658 373.22148774682887 656.6779531541187 566.2832726907848 607.7276381332737 626.40036078815 "></path><path d="M633.4217109042158 282.5596790727522C661.3985369599909 374.70916676550553 642.4180499135687 557.0452969903527 596.1871968383261 613.8225468600865C549.9563437630836 670.5997967298205 489.586903135556 559.4644919610921 411.51361614305165 555.0904784474752C333.4403291505472 550.7164649338583 273.4020347820552 625.699586149198 221.4354192743047 592.8272819947255C169.46880376655423 559.9549778402529 137.1544195599668 453.51853133959025 162.07386170584994 397.303418506007C186.99330385173306 341.0883056724237 278.58528947771987 370.0360763458456 341.0487415745438 322.9947403935257C403.51219367136787 275.95340444120586 400.9873964935904 179.92897704336565 461.8984317706054 171.50500593487112C522.8094670476205 163.0810348263766 605.4448848484407 190.41019137999888 633.4217109042158 282.5596790727522C661.3985369599909 374.70916676550553 642.4180499135687 557.0452969903527 596.1871968383261 613.8225468600865 "></path><path d="M619.6910345935588 289.46794670858066C646.0221649989942 376.1968763017603 628.1581771905968 547.8073518074988 584.6467860609569 601.2447634496014C541.1353949313168 654.6821750917038 484.31709787011437 550.0842411917242 410.83635717128664 545.967522590673C337.35561647245896 541.8508039896217 280.8489864785841 612.4231533687649 231.93923070658366 581.4845141645554C183.02947493458316 550.545874960346 152.61593685779502 450.37039590089876 176.06952946568504 397.46205441046754C199.52312207357505 344.55371292003616 285.7273438392097 371.798673553845 344.5164752244558 327.52447501048516C403.30560660970195 283.2502764671252 400.92932691297005 192.87434479856984 458.25736011486674 184.94590140233964C515.5853933167632 177.0174580061095 593.3599041881234 202.73901711540105 619.6910345935588 289.46794670858066C646.0221649989942 376.1968763017603 628.1581771905968 547.8073518074988 584.6467860609569 601.2447634496014 "></path><path d="M605.9603430241127 296.376183826831C630.6457777792084 377.68455532043686 613.8982892088359 538.5693761070668 573.1063600247983 588.6669495215378C532.3144308407609 638.7645229360089 479.04727734588346 540.703959904778 410.15908294073256 536.8445362162925C341.27088853558166 532.9851125278069 288.29592291632395 599.1466900707537 242.44302688007355 570.1417158168074C196.5901308438231 541.1367415628611 168.07743889683422 447.22222994462936 190.06518196673107 397.62065979734996C212.05292503662798 348.01908965007055 292.8693829419105 373.5612402442664 347.98419361557865 332.0541791098665C403.09900428924686 290.54711797546656 400.8712420735608 205.81968203619584 454.6162732003389 198.38676635223004C508.36130432711695 190.9538506682643 581.274908269017 215.0678123332251 605.9603430241127 296.376183826831C630.6457777792084 377.68455532043686 613.8982892088359 538.5693761070668 573.1063600247983 588.6669495215378 "></path><path d="M592.2296514546667 303.28445146265943C615.2693905594226 379.17226485669164 599.638401227075 529.3314309242128 561.5659339886399 576.0891661110525C523.493466750205 622.8469012978921 473.7774568216528 531.3237091354101 409.4818087101786 527.7215803594902C345.1861605987043 524.1194515835704 295.7428593540638 585.8702572903208 252.94682305356343 558.7989479866374C210.15078675306302 531.7276386829542 183.53894093587337 444.07409450593786 204.0608344677771 397.7792957018105C224.5827279996809 351.484496897683 300.01142204461127 375.3238374522658 351.45191200670155 336.58391372682587C402.8924019687919 297.843990001386 400.8131572341516 218.76504979139997 450.9751862858111 211.82766181969856C501.1372153374706 204.8902738479972 569.1899123499106 227.39663806862728 592.2296514546667 303.28445146265943C615.2693905594226 379.17226485669164 599.638401227075 529.3314309242128 561.5659339886399 576.0891661110525 "></path><path d="M578.4989598852206 310.1927190984879C599.8930033396368 380.6599743929463 585.378513245314 520.0934857413588 550.0255079524816 563.5113827005671C514.6725026596491 606.9292796597754 468.507636297422 521.943458366042 408.8045344796245 518.5986245026879C349.101432661827 515.2537906393337 303.1897957918037 572.5938245098876 263.4506192270533 547.4561801564673C223.71144266230294 522.3185358030473 199.00044297491257 440.92595906724637 218.0564869688232 397.9379316062709C237.11253096273384 354.9499041452955 307.153461147312 377.08643466026524 354.91963039782445 341.11364834378526C402.6857996483369 305.1408620273054 400.75507239474234 231.7104175466041 447.3340993712833 225.26855728716708C493.91312634782435 218.82669702773006 557.1049164308043 239.72546380402946 578.4989598852206 310.1927190984879C599.8930033396368 380.6599743929463 585.378513245314 520.0934857413588 550.0255079524816 563.5113827005671 "></path><path d="M564.7682683157745 317.1009562167382C584.5166161198512 382.1476534116229 571.1186252635531 510.8555100409269 538.4850819163231 550.9335687725036C505.8515385690931 591.0116275040805 463.2378157731912 512.5631770790958 408.12726024907045 509.4756381283074C353.0167047249497 506.38809917751905 310.63673222954355 559.3173612118765 273.9544154005432 536.1133818087194C237.27209857154287 512.9094024055622 214.46194501395172 437.77779311097686 232.05213946986925 398.09653699315334C249.64233392578677 358.41528087532987 314.29550025001276 378.84900135068654 358.3873487889473 345.6433524431666C402.47919732788193 312.4377035356467 400.69698755533307 244.6557547842301 443.69301245675547 238.70942223705748C486.689037358178 232.76308968988485 545.019920511698 252.0542590218535 564.7682683157745 317.1009562167382C584.5166161198512 382.1476534116229 571.1186252635531 510.8555100409269 538.4850819163231 550.9335687725036 "></path><path d="M551.0375767463285 324.0092238525667C569.1402289000654 383.63536294787764 556.8587372817922 501.6175648580729 526.9446558801646 538.3557853620184C497.0305744785371 575.0940058659638 457.9679952489605 503.1829263097278 407.44998601851637 500.35268227150516C356.93197678807235 497.5224382332824 318.0836686672834 546.0409284314434 284.4582115740331 524.7706139785494C250.8327544807828 503.50029952565535 229.92344705299092 434.6296576722855 246.04779197091528 398.2551728976139C262.1721368888397 361.8806881229424 321.43753935271354 380.61159855868596 361.8550671800702 350.173087060126C402.2725950074269 319.7345755615661 400.6389027159238 257.60112253943424 440.05192554222776 252.150317704526C479.4649483685316 246.69951286961776 532.9349245925916 264.3830847572557 551.0375767463285 324.0092238525667C569.1402289000654 383.63536294787764 556.8587372817922 501.6175648580729 526.9446558801646 538.3557853620184 "></path><path d="M537.3068851768825 330.917460970817C553.7638416802796 385.12304196655424 542.5988493000311 492.3795891576408 515.4042298440063 525.7779714339549C488.20961038798123 559.1763537102689 452.6981747247296 493.8026450227817 406.77271178796235 491.22969589712466C360.84724885119505 488.6567467714676 325.53060510502326 532.7644651334322 294.962007747523 513.4278156308012C264.3934103900227 494.09116612817036 245.38494909203007 431.48149171601585 260.0434444719614 398.4137782844963C274.7019398518926 365.3460648529767 328.57957845541426 382.37416524910725 365.3227855711931 354.70279115950734C402.06599268697187 327.0314170699074 400.5808178765145 270.54645977706025 436.41083862769983 265.5911826544164C472.24085937888526 260.63590553177255 520.8499286734852 276.71187997507974 537.3068851768825 330.917460970817C553.7638416802796 385.12304196655424 542.5988493000311 492.3795891576408 515.4042298440063 525.7779714339549 "></path><path d="M523.5761936074364 337.8256980890674C538.3874544604938 386.61072098523084 528.3389613182703 483.1416134572088 503.8638038078477 513.2001575058914C479.38864629742534 543.2587015545741 447.4283542004989 484.4223637358356 406.09543755740833 482.10670952274427C364.76252091431775 479.79105530965296 332.9775415427631 519.4880018354211 305.4658039210129 502.08501728305316C277.9540662992626 484.68203273068536 260.8464511310693 428.33332575974634 274.0390969730074 398.5723836713787C287.2317428149455 368.81144158301106 335.72161755811504 384.13673193952854 368.79050396231594 359.2324952588886C401.8593903665169 334.32825857824866 400.52273303710524 283.49179701468626 432.7697517131721 279.0320476043068C465.0167703892389 274.57229819392734 508.76493275437895 289.0406751929038 523.5761936074364 337.8256980890674C538.3874544604938 386.61072098523084 528.3389613182703 483.1416134572088 503.8638038078477 513.2001575058914 "></path><path d="M509.8455020379904 344.7339657248958C523.011067240708 388.0984305214856 514.0790733365093 473.9036682743549 492.32337777168937 500.62237409540614C470.56768220686934 527.3410799164574 442.1585336762681 475.0421129664676 405.41816332685426 472.983753665942C368.6777929774404 470.9253943654163 340.42447798050296 506.2115690549879 315.96960009450277 490.74224945288324C291.5147222085025 475.2729298507785 276.3079531701085 425.18519032105485 288.03474947405346 398.73101957583924C299.76154577799844 372.2768488306235 342.8636566608158 385.89932914752796 372.25822235343884 363.76222987584805C401.6527880460619 341.6251306041681 400.46464819769596 296.4371647698904 429.1286647986443 292.4729430717753C457.79268139959254 288.50872137366025 496.67993683527266 301.369500928306 509.8455020379904 344.7339657248958C523.011067240708 388.0984305214856 514.0790733365093 473.9036682743549 492.32337777168937 500.62237409540614 "></path><path d="M496.1148104685443 351.6422333607243C507.63468002092225 389.58614005774035 499.81918535474847 464.6657230915009 480.7829517355309 488.04459068492076C461.74671811631345 511.4234582783406 436.8887131520373 465.6618621970996 404.74088909630024 463.8607978091396C372.5930650405631 462.0597334211797 347.87141441824286 492.9351362745549 326.47339626799265 479.3994816227132C305.07537811774245 465.8638269708716 291.7694552091476 422.03705488236346 302.0304019750995 398.8896554802998C312.29134874105137 375.74225607823604 350.00569576351654 387.66192635552744 375.72594074456174 368.29196449280744C401.4461857256069 348.9220026300875 400.40656335828675 309.3825325250945 425.4875778841165 305.91383853924384C450.56859240994623 302.4451445533931 484.59494091616625 313.6983266637082 496.1148104685443 351.6422333607243C507.63468002092225 389.58614005774035 499.81918535474847 464.6657230915009 480.7829517355309 488.04459068492076 "></path><path d="M482.3841188990982 358.55048573776367C492.2582928011366 391.073834335206 485.5592973729875 455.427762649858 469.2425256993725 475.4667920156463C452.9257540257575 495.50582138143477 431.61889262780653 456.28159616894243 404.06361486574616 454.73782669354824C376.5083371036858 453.19405721815406 355.3183508559827 479.65868823533276 336.97719244148254 468.05669853375423C318.6360340269824 456.45470883217564 307.2309572481868 418.88890418488296 316.02605447614553 399.0482761259712C324.8211517041043 379.20764806705944 357.1477348662173 389.4245083047378 379.1936591356846 372.8216838509778C401.2395834051519 356.21885939721784 400.34847851887747 322.3278850215096 421.8464909695887 319.35471874792324C443.34450342029993 316.38155247433696 472.50994499705996 326.0271371403213 482.3841188990982 358.55048573776367C492.2582928011366 391.073834335206 485.5592973729875 455.427762649858 469.2425256993725 475.4667920156463 "></path><path d="M468.65344258844124 365.45873811480305C476.8819208401398 392.5615286126717 471.29942465001557 446.1898022082149 457.70211492200315 462.888993346372C444.1048051939906 479.588184484529 426.3490873623648 446.9013301407854 403.3863558939812 445.61485557795686C380.4236244255975 444.32838101512834 362.7653025525116 466.3822401961106 347.4810038737615 456.71391544479513C332.19670519501136 447.0455906934797 322.69247454601503 415.74075348740246 330.0217222359807 399.2068967716427C337.3509699259463 382.6730400558829 364.28978922770716 391.18709025394816 382.66139278559655 377.3514032091482C401.03299634348593 363.5157161643482 400.29040893825726 335.27323751792466 418.2054193138499 332.7955989566027C436.12042968944263 330.3179603952808 460.4249643367426 338.35594761693443 468.65344258844124 365.45873811480305C476.8819208401398 392.5615286126717 471.29942465001557 446.1898022082149 457.70211492200315 462.888993346372 "></path><path d="M454.92276627778426 372.36699049184244C461.5055488791431 394.04922289013734 457.0395519270437 436.951841766572 446.16170414463375 450.3111946770976C435.28385636222373 463.6705475876232 421.0792820969231 437.5210641126283 402.7090969222162 436.49188446236553C384.33891174750926 435.4627048121027 370.21225424904054 453.10579215688847 357.98481530604045 445.37113235583615C345.75737636304035 437.6364725547838 338.1539918438433 412.59260278992195 344.0173899958158 399.36551741731415C349.8807881477883 386.1384320447063 371.43184358919694 392.9496722031585 386.1291264355085 381.8811225673185C400.82640928182 370.8125729314786 400.23233935763704 348.2185900143397 414.5643476581112 346.23647916528216C428.89635595858533 344.25436831622466 448.3399836764254 350.68475809354754 454.92276627778426 372.36699049184244C461.5055488791431 394.04922289013734 457.0395519270437 436.951841766572 446.16170414463375 450.3111946770976 "></path><path d="M441.19207470833817 379.27524286888183C446.12916165935735 395.536917167603 442.7796639452828 427.713881324929 434.6212781084753 437.73339600782316C426.4628922716678 447.7529106907174 415.8094615726923 428.1407980844712 402.0318226916621 427.3689133467741C388.25418381063196 426.59702860907703 377.6591906867804 439.8293441176664 368.48861147953033 434.0283492668771C359.3180322722802 428.2273544160878 353.61549388288245 409.44445209244145 358.01304249686183 399.5241380629856C362.4105911108412 389.60382403352975 378.5738826918977 394.71225415236887 389.59684482663135 386.4108419254889C400.619806961365 378.10942969860895 400.1742545182278 361.1639425107548 410.9232607435834 359.6773593739616C421.672266968939 358.1907762371685 436.25498775731904 363.01356857016066 441.19207470833817 379.27524286888183C446.12916165935735 395.536917167603 442.7796639452828 427.713881324929 434.6212781084753 437.73339600782316 "></path><path d="M427.46138313889213 386.1834952459212C430.75277443957157 397.0246114450687 428.51977596352185 418.475920883286 423.0808520723169 425.1555973385488C417.6419281811119 431.8352737938116 410.53964104846153 418.76053205631416 401.3545484611081 418.24594223118277C392.16945587375466 417.7313524060513 385.1061271245203 426.55289607844423 378.9924076530202 422.6855661779181C372.87868818152015 418.81823627739186 369.07699592192165 406.296301394961 372.0086949979079 399.68275870865705C374.94039407389414 393.06921602235315 385.7159217945985 396.4748361015793 393.06456321775426 390.9405612836593C400.41320464091 385.4062864657393 400.11616967881855 374.10929500716986 407.2821738290556 373.1182395826411C414.44817797929267 372.1271841581123 424.1699918382127 375.3423790467738 427.46138313889213 386.1834952459212C430.75277443957157 397.0246114450687 428.51977596352185 418.475920883286 423.0808520723169 425.1555973385488 "></path><path d="M413.73069156944604 393.0917476229606C415.3763872197858 398.51230572253434 414.2598879817609 409.237960441643 411.54042603615846 412.5777986692744C408.82096409055595 415.9176368969058 405.2698205242308 409.38026602815705 400.6772742305541 409.1229711155914C396.0847279368773 408.86567620302566 392.55306356226015 413.27644803922215 389.4962038265101 411.34278308895904C386.4393440907601 409.40911813869593 384.5384979609608 403.1481506974805 386.00434749895396 399.8413793543285C387.47019703694707 396.5346080111766 392.8579608972992 398.23741805078964 396.5322816088771 395.4702806418296C400.206602320455 392.70314323286965 400.0580848394093 387.05464750358493 403.6410869145278 386.55911979132054C407.22408898964636 386.06359207905615 412.08499591910635 387.6711895233869 413.73069156944604 393.0917476229606C415.3763872197858 398.51230572253434 414.2598879817609 409.237960441643 411.54042603615846 412.5777986692744 "></path></g></svg>